<?xml version="1.0" standalone="no"?><!DOCTYPE svg PUBLIC "-//W3C//DTD SVG 1.1//EN" "http://www.w3.org/Graphics/SVG/1.1/DTD/svg11.dtd"><svg t="1587902856205" class="icon" viewBox="0 0 1036 1024" version="1.1" xmlns="http://www.w3.org/2000/svg" p-id="2327" xmlns:xlink="http://www.w3.org/1999/xlink" width="16.1875" height="16"><defs><style type="text/css"></style></defs><path d="M389.811636 483.40046H92.454415a86.108809 86.108809 0 0 1-86.091084-86.020183V100.023057A86.108809 86.108809 0 0 1 92.383514 14.002873h297.428122a86.108809 86.108809 0 0 1 86.020183 86.020184v297.35722a86.108809 86.108809 0 0 1-86.020183 86.020183zM92.454415 79.585951a20.45483 20.45483 0 0 0-20.508006 20.437106v297.35722a20.45483 20.45483 0 0 0 20.437105 20.437105h297.428122a20.45483 20.45483 0 0 0 20.437105-20.437105V100.023057a20.45483 20.45483 0 0 0-20.437105-20.437106zM787.262814 498.413668a116.507452 116.507452 0 0 1-82.634679-34.174101l-132.371466-132.371467a116.87968 116.87968 0 0 1 0-165.287082l132.371466-132.371466a116.986031 116.986031 0 0 1 165.287082 0l132.371467 132.371466a116.87968 116.87968 0 0 1 0 165.287082l-132.371467 132.371467a116.507452 116.507452 0 0 1-82.652403 34.174101z m0-432.848315a51.137076 51.137076 0 0 0-36.26567 14.960032L618.607952 212.932302a51.296602 51.296602 0 0 0 0 72.549064l132.371467 132.371467a51.402953 51.402953 0 0 0 72.549064 0l132.371467-132.371467a51.296602 51.296602 0 0 0 0-72.549064l-132.406917-132.406917a51.154801 51.154801 0 0 0-36.230219-14.960032zM383.377404 1023.503696H86.020183A86.108809 86.108809 0 0 1 0 937.483512V640.126292a86.108809 86.108809 0 0 1 86.020183-86.020183h297.357221a86.108809 86.108809 0 0 1 86.020183 86.020183V937.483512a86.108809 86.108809 0 0 1-86.020183 86.020184zM86.020183 619.689187A20.45483 20.45483 0 0 0 65.583078 640.126292V937.483512a20.45483 20.45483 0 0 0 20.437105 20.437106h297.357221a20.45483 20.45483 0 0 0 20.437105-20.437106V640.126292a20.45483 20.45483 0 0 0-20.437105-20.437105zM929.507192 1024H632.167697a86.108809 86.108809 0 0 1-86.020184-86.020183V640.640321a86.108809 86.108809 0 0 1 86.020184-86.020183H929.507192a86.108809 86.108809 0 0 1 86.020183 86.020183v297.339496a86.108809 86.108809 0 0 1-86.020183 86.020183zM632.167697 620.185491a20.45483 20.45483 0 0 0-20.437106 20.45483v297.339496a20.45483 20.45483 0 0 0 20.437106 20.437105H929.507192a20.45483 20.45483 0 0 0 20.437105-20.437105V640.640321a20.45483 20.45483 0 0 0-20.437105-20.437105z" fill="#474747" p-id="2328"></path></svg>