<?xml version="1.0" standalone="no"?><!DOCTYPE svg PUBLIC "-//W3C//DTD SVG 1.1//EN" "http://www.w3.org/Graphics/SVG/1.1/DTD/svg11.dtd"><svg t="1587902844641" class="icon" viewBox="0 0 1024 1024" version="1.1" xmlns="http://www.w3.org/2000/svg" p-id="2133" xmlns:xlink="http://www.w3.org/1999/xlink" width="16" height="16"><defs><style type="text/css"></style></defs><path d="M881.14799844 992H724.47305563a84.05333344 84.05333344 0 0 1-83.96505751-83.9650575V720.58114906a128.51494219 128.51494219 0 1 0-257.02988531 0v187.43908125a84.05333344 84.05333344 0 0 1-83.9650575 83.97976969H142.83811344A84.05333344 84.05333344 0 0 1 58.87305594 908.0349425V352.41195406a140.09379281 140.09379281 0 0 1 67.67816062-119.56965562L428.69006656 51.78850531a139.77011531 139.77011531 0 0 1 140.00551782-1.92735562L894.06569938 232.82758625a139.57885031 139.57885031 0 0 1 71.04735656 121.49701125v553.69563281a84.05333344 84.05333344 0 0 1-83.9650575 83.97976969zM511.99305594 527.33057469c106.56367781 0 193.25057438 86.68689656 193.25057437 193.25057437v187.43908125a19.2441375 19.2441375 0 0 0 19.22942532 19.2441375h156.67494281a19.2441375 19.2441375 0 0 0 19.22942531-19.22942531V354.38344813a74.75494219 74.75494219 0 0 0-38.06160938-65.07402282L536.96041156 106.29885031a74.81379281 74.81379281 0 0 0-75.03448219 1.029885L159.89006656 288.38252844A75.03448313 75.03448313 0 0 0 123.60868813 352.41195406v555.60827625a19.2441375 19.2441375 0 0 0 19.22942531 19.2441375h156.67494187a19.2441375 19.2441375 0 0 0 19.22942532-19.22942531V720.58114906c0-106.56367781 86.68689656-193.25057438 193.25057531-193.25057437z" fill="#474747" p-id="2134"></path></svg>